<?xml version="1.0" encoding="utf-8"?>
<!-- Generator: Adobe Illustrator 28.3.0, SVG Export Plug-In . SVG Version: 6.00 Build 0)  -->
<svg version="1.1" id="Ebene_1" xmlns="http://www.w3.org/2000/svg" xmlns:xlink="http://www.w3.org/1999/xlink" x="0px" y="0px"
	 viewBox="0 0 852 512" style="enable-background:new 0 0 852 512;" xml:space="preserve">
<style type="text/css">
	.st0{fill:#DE4A4B;}
	.st1{clip-path:url(#SVGID_00000149347217117361866060000004061049786380162200_);fill:#ED6B6C;}
	.st2{fill:none;}
	.st3{fill:#FFFFFF;}
</style>
<g>
	<g>
		<path id="XMLID_00000116928918375012735400000015716975998012865981_" class="st0" d="M519.4,253.8c-9.5,0-18-6.1-21-15.1
			L484.9,198c-4-11.8-15-19.8-27.5-19.8s-23.5,8-27.5,19.8l-13.6,40.7c-3,9.1-11.5,15.1-21,15.1c-10.8,0-20-7.7-21.8-18.3l-9.4-53.8
			c-2.3-13.4-7.3-27.2-14.9-40.9c-10.1-18.4-15.5-45.1-15.5-60.9c0-40.4,32.8-73.2,73.2-73.2c12,0,23.9,3,34.4,8.6
			c9.9,5.3,22.1,5.3,32,0c10.5-5.6,22.4-8.6,34.4-8.6c40.4,0,73.2,32.8,73.2,73.2c0,15.8-5.4,42.5-15.5,60.9
			c-7.5,13.7-12.5,27.5-14.9,40.9l-9.4,53.8C539.4,246.1,530.2,253.8,519.4,253.8z"/>
	</g>
	<g>
		<defs>
			<path id="SVGID_1_" d="M519.4,253.8c-9.5,0-18-6.1-21-15.1L484.9,198c-4-11.8-15-19.8-27.5-19.8s-23.5,8-27.5,19.8l-13.6,40.7
				c-3,9.1-11.5,15.1-21,15.1c-10.8,0-20-7.7-21.8-18.3l-9.4-53.8c-2.3-13.4-7.3-27.2-14.9-40.9c-10.1-18.4-15.5-45.1-15.5-60.9
				c0-40.4,32.8-73.2,73.2-73.2c12,0,23.9,3,34.4,8.6c9.9,5.3,22.1,5.3,32,0c10.5-5.6,22.4-8.6,34.4-8.6c40.4,0,73.2,32.8,73.2,73.2
				c0,15.8-5.4,42.5-15.5,60.9c-7.5,13.7-12.5,27.5-14.9,40.9l-9.4,53.8C539.4,246.1,530.2,253.8,519.4,253.8z"/>
		</defs>
		<clipPath id="SVGID_00000106850718030531459550000015377538150312981951_">
			<use xlink:href="#SVGID_1_"  style="overflow:visible;"/>
		</clipPath>
		<path style="clip-path:url(#SVGID_00000106850718030531459550000015377538150312981951_);fill:#ED6B6C;" d="M553,175.6
			c7-27.1,30.1-51.1,30.1-97c0-40.2-32.8-73.7-73.2-73c-35.9,0.6-42.7,20.6-68.1,10.7C428.1,23.8,456,146.1,553,175.6"/>
	</g>
</g>
<g>
	<path class="st2" d="M484.8,180.2c2.5-14.3,7.8-28.9,15.7-43.4c9.5-17.2,14.6-42.3,14.6-57.2c0-36.1-29.3-65.4-65.4-65.4
		c-10.7,0-21.3,2.7-30.7,7.7c-12.1,6.5-27.2,6.5-39.3,0c-9.4-5-20-7.7-30.7-7.7c-9.9,0-19.5,2.2-28.3,6.5c-22.5,10.9-37,34-37,58.9
		c0,14.8,5.1,39.9,14.6,57.2c8,14.5,13.2,29.1,15.7,43.4l9.4,53.8c1.2,6.9,7.1,11.9,14.1,11.9c6.2,0,11.6-3.9,13.6-9.8l13.6-40.7
		c5-15,19-25.1,34.9-25.1c15.8,0,29.9,10.1,34.9,25.1l13.6,40.7c2,5.9,7.4,9.8,13.6,9.8c7,0,12.9-5,14.1-11.9L484.8,180.2z"/>
	<path class="st3" d="M449.7,6.5c-12,0-23.9,3-34.4,8.6c-0.2,0.1-0.4,0.2-0.6,0.3c-9.7,5-21.7,4.9-31.3-0.3c-2.4-1.3-5-2.5-7.5-3.5
		c-8.5-3.4-17.7-5.1-26.9-5.1c-11.1,0-21.8,2.4-31.7,7.2c-25.2,12.2-41.5,38.1-41.5,66c0,15.8,5.4,42.5,15.5,60.9
		c7.5,13.7,12.5,27.5,14.9,40.9l9.4,53.8c1.8,10.6,11,18.3,21.8,18.3c9.5,0,18-6.1,21-15.1l12.6-37.8l1-2.9
		c4-11.8,15-19.8,27.5-19.8c11.2,0,21.2,6.4,26,16.3c0.5,1.1,1,2.3,1.4,3.5l13.6,40.7c3,9.1,11.5,15.1,21,15.1
		c10.8,0,20-7.7,21.8-18.3l9.4-53.8c2.3-13.5,7.3-27.2,14.9-40.9c10.1-18.4,15.5-45.1,15.5-60.9C522.9,39.3,490,6.5,449.7,6.5z
		 M461.3,245.9c-6.2,0-11.6-3.9-13.6-9.8l-13.6-40.7c-5-15-19-25.1-34.9-25.1c-15.8,0-29.9,10.1-34.9,25.1l-13.5,40.7
		c-2,5.9-7.4,9.8-13.6,9.8c-7,0-12.9-5-14.1-11.9l-9.4-53.8c-2.5-14.3-7.8-28.9-15.7-43.4c-9.5-17.2-14.6-42.3-14.6-57.2
		c0-24.9,14.5-48.1,37-58.9c8.9-4.3,18.4-6.5,28.3-6.5c10.7,0,21.3,2.7,30.7,7.7c12.1,6.5,27.2,6.5,39.3,0c9.4-5,20-7.7,30.7-7.7
		c36.1,0,65.4,29.3,65.4,65.4c0,14.8-5.1,39.9-14.6,57.2c-8,14.5-13.2,29.1-15.7,43.4l-9.4,53.8
		C474.2,240.9,468.3,245.9,461.3,245.9z"/>
</g>
<g>
	<path class="st3" d="M100,344.8l-26.7,37.6H100v10.1H58.8v-8.8l26.3-37.6H59.8V336h40.1L100,344.8L100,344.8z"/>
	<path class="st3" d="M147.3,354.3v38.2h-10.7v-4.8c-2.7,3.8-8,5.5-12.3,5.5c-9.8,0-18.8-7.6-18.8-19.9s8.9-19.9,18.8-19.9
		c4.4,0,9.6,1.6,12.3,5.5v-4.6L147.3,354.3L147.3,354.3z M136.2,373.3c0-5.9-4.9-9.8-9.9-9.8c-5.4,0-9.9,4.2-9.9,9.8
		c0,5.6,4.5,9.9,9.9,9.9C131.5,383.2,136.2,379.1,136.2,373.3z"/>
	<path class="st3" d="M195.5,371.5v21h-10.7v-19.8c0-6.1-3.6-8.8-7.3-8.8c-3.9,0-8.6,2-8.6,9v19.6h-10.7v-58.6h10.7v26.4
		c1.6-4.8,7.8-7,11.5-7C190.3,353.3,195.6,360,195.5,371.5z"/>
	<path class="st3" d="M243.2,371.5v21h-10.7v-19.8c0-6.1-3.6-8.8-7.3-8.8c-3.9,0-8.6,2-8.6,9v19.6h-10.7v-38.2h10.7v6.4
		c1.6-5.2,7.7-7.4,11.5-7.4C238,353.3,243.3,360,243.2,371.5z"/>
	<path class="st3" d="M293.1,354.3v38.2h-10.7v-4.8c-2.7,3.8-8,5.5-12.3,5.5c-9.8,0-18.8-7.6-18.8-19.9s8.9-19.9,18.8-19.9
		c4.4,0,9.6,1.6,12.3,5.5v-4.6L293.1,354.3L293.1,354.3z M282,373.3c0-5.9-4.9-9.8-9.9-9.8c-5.4,0-9.9,4.2-9.9,9.8
		c0,5.6,4.5,9.9,9.9,9.9C277.3,383.2,282,379.1,282,373.3z"/>
	<path class="st3" d="M331.8,354.5l-2.5,10.3c-2.3-1.2-4.2-1.4-5.5-1.4c-5.5,0-9.3,5.1-9.3,16v13.1h-10.7v-38.2h10.7v8.1
		c2.1-6.4,6.5-9.1,11.2-9.1C327.8,353.3,330.1,353.6,331.8,354.5z"/>
	<path class="st3" d="M370,362.5l-19.1,20H370v10h-34.4v-8.1l18.7-20.1h-17.5v-10h33.3L370,362.5L370,362.5z"/>
	<path class="st3" d="M401.7,362.6h-8.1v29.9h-10.7v-29.9h-7v-8.3h7v-14h10.7v14h8.1V362.6z"/>
	<path class="st3" d="M450.5,373.3c0,12.3-8.9,19.9-18.8,19.9c-4.3,0-9.6-1.6-12.3-5.5v23.5h-10.7v-57h10.7v4.6
		c2.7-3.9,8-5.6,12.3-5.6C441.6,353.3,450.5,361,450.5,373.3z M439.5,373.3c0-5.6-4.4-9.9-9.8-9.9c-5.2,0-9.9,4.1-9.9,9.9
		c0,5.9,4.9,9.8,9.9,9.8C435.1,383.2,439.5,379,439.5,373.3z"/>
	<path class="st3" d="M487,354.5l-2.5,10.3c-2.3-1.2-4.2-1.4-5.5-1.4c-5.5,0-9.3,5.1-9.3,16v13.1H459v-38.2h10.7v8.1
		c2.1-6.4,6.5-9.1,11.2-9.1C483,353.3,485.3,353.6,487,354.5z"/>
	<path class="st3" d="M531.3,354.3v38.2h-10.7v-4.8c-2.7,3.8-8,5.5-12.3,5.5c-9.8,0-18.8-7.6-18.8-19.9s8.9-19.9,18.8-19.9
		c4.4,0,9.6,1.6,12.3,5.5v-4.6L531.3,354.3L531.3,354.3z M520.3,373.3c0-5.9-4.9-9.8-9.9-9.8c-5.4,0-9.9,4.2-9.9,9.8
		c0,5.6,4.5,9.9,9.9,9.9C515.6,383.2,520.3,379.1,520.3,373.3z"/>
	<path class="st3" d="M566.6,392.5l-8.4-12.2l-8.6,12.2H537l15.2-20.7l-12.6-17.5h12.7l6.1,8.8l5.9-8.8h12.6l-12.6,17.5l15,20.7
		H566.6z"/>
	<path class="st3" d="M583.3,341c0-3.6,3.1-6.4,6.8-6.4c3.8,0,6.8,2.8,6.8,6.4s-3,6.5-6.8,6.5C586.4,347.5,583.3,344.6,583.3,341z
		 M584.8,354.3h10.7v38.2h-10.7V354.3z"/>
	<path class="st3" d="M604,380.2h10.1c0,2.2,1.9,4.6,5.7,4.6c3.1,0,5.5-1.3,5.5-3.5c0-1.6-1.3-2.5-4.2-3.2l-5.1-1.2
		c-9.8-2.6-11.2-8.1-11.2-12.1c0-5.9,6.1-11.4,15-11.4c7,0,15.2,3.4,15.1,12.5h-10.2c0-2.5-2.1-3.9-4.7-3.9c-2.5,0-4.4,1.2-4.4,3.2
		c0,1.8,1.6,2.7,3.8,3.3l6.3,1.6c9.2,2.5,10.3,8.2,10.3,11.3c0,8-8.2,12-16.1,12C611.9,393.2,604.1,388.6,604,380.2z"/>
	<path class="st3" d="M676.9,346.1v13.6h18.7v10h-18.7v22.8h-11.4V336h34.9v10.1H676.9z"/>
	<path class="st3" d="M708.1,333.9h10.7v58.6h-10.7V333.9z"/>
	<path class="st3" d="M727.3,373.3c0-12.1,9.7-20,20.6-20s20.6,7.9,20.6,20s-9.7,19.9-20.6,19.9S727.3,385.4,727.3,373.3z
		 M757.6,373.3c0-6-4.3-10-9.7-10s-9.7,4-9.7,10c0,5.9,4.3,9.9,9.7,9.9S757.6,379.2,757.6,373.3z"/>
	<path class="st3" d="M804.9,354.5l-2.5,10.3c-2.3-1.2-4.2-1.4-5.5-1.4c-5.5,0-9.3,5.1-9.3,16v13.1h-10.7v-38.2h10.7v8.1
		c2.1-6.4,6.5-9.1,11.2-9.1C800.9,353.3,803.2,353.6,804.9,354.5z"/>
	<path class="st3" d="M45.6,473.5H19.5l-5.7,15H8.1L29.7,432h5.7l21.5,56.5h-5.7L45.6,473.5z M43.7,468.7l-11.2-29.4l-11.2,29.4
		H43.7z"/>
	<path class="st3" d="M64,429.4h5.2v59.1H64V429.4z"/>
	<path class="st3" d="M82.4,429.4h5.2v59.1h-5.2V429.4z"/>
	<path class="st3" d="M138.1,450.2v33c0,18.5-8.3,24.8-20.7,24.8c-6.5,0-12.8-3.2-16.6-9.4l4.4-2.5c2.8,4.6,7.5,6.9,12.1,6.9
		c9.3,0,15.5-4.8,15.5-19.5V481c-2.9,5.2-8.9,8.4-15.3,8.4c-10.7,0-19.4-8.5-19.4-20.2c0-11.6,8.7-20.1,19.4-20.1
		c6.5,0,12.4,3.2,15.3,8.4v-7.4L138.1,450.2L138.1,450.2z M132.8,469.5c0-9.3-7.2-15.3-14.8-15.3c-8,0-14.6,6.6-14.6,15
		c0,8.5,6.6,15.3,14.6,15.3C125.9,484.5,132.8,478.3,132.8,469.5z"/>
	<path class="st3" d="M186.9,471.5h-33c0.9,8.2,6.6,13,14.4,13c5.2,0,9.9-2.5,12.5-6.7l4.5,2c-3.4,6.2-9.9,9.8-17.1,9.8
		c-10.8,0-19.5-8.1-19.5-20.3c0-12.1,8.7-20,19.5-20c10.9,0,18.9,7.9,18.9,20C186.9,470,186.9,470.8,186.9,471.5z M181.8,467
		c-0.7-8-6.2-12.8-13.7-12.8S155,458.8,154,467H181.8z"/>
	<path class="st3" d="M258.3,466.2v22.3h-5.2v-22.1c0-7.4-4.4-12.1-10.7-12.1c-7.2-0.1-12.5,5.3-11.9,14.7l-0.1-0.3v19.8h-5.2v-22.1
		c0-7.5-4.4-12.1-10.5-12.1c-6.2,0-12.1,3.8-12.2,13v21.2h-5.2v-38.3h5.2v6.9c2-5.1,7.5-7.9,13.1-7.9c6.2,0,11.3,3.4,13.4,9.3
		c2.8-7.6,9.4-9.3,14.1-9.3C252.4,449.2,258.3,455.6,258.3,466.2z"/>
	<path class="st3" d="M306.6,471.5h-33c0.9,8.2,6.6,13,14.4,13c5.2,0,9.9-2.5,12.5-6.7l4.5,2c-3.4,6.2-9.9,9.8-17.1,9.8
		c-10.8,0-19.5-8.1-19.5-20.3c0-12.1,8.7-20,19.5-20c10.9,0,18.9,7.9,18.9,20C306.7,470,306.7,470.8,306.6,471.5z M301.5,467
		c-0.7-8-6.2-12.8-13.7-12.8s-13.1,4.6-14.1,12.8H301.5z"/>
	<path class="st3" d="M315.5,436.1c0-2.2,1.9-3.8,4-3.8c2.3,0,4.1,1.6,4.1,3.8c0,2.1-1.8,3.7-4.1,3.7
		C317.4,439.8,315.5,438.2,315.5,436.1z M316.9,450.2h5.2v38.3h-5.2V450.2z"/>
	<path class="st3" d="M369.4,466.2v22.3h-5.2v-22.1c0-7.4-4.7-12.1-10.8-12.1c-6.2,0-12.6,3.6-12.8,12.9v21.2h-5.2v-38.3h5.2v6.9
		c2.3-5.5,8.5-7.9,13.3-7.9C363.1,449.2,369.4,455.6,369.4,466.2z"/>
	<path class="st3" d="M411.4,454.4l-25.2,29.1h25.2v5h-32.7v-4.1l24.9-29.2h-24.2v-5h31.9L411.4,454.4L411.4,454.4z"/>
	<path class="st3" d="M458.1,450.2v38.3h-5.2v-7.9c-2.9,5.2-8.8,8.9-15.4,8.9c-10.4,0-19.3-8.8-19.3-20.2c0-11.2,8.5-20.1,19.4-20.1
		c6.5,0,12.4,3.1,15.3,8.4v-7.4H458.1z M452.9,469.5c0-8.9-7.1-15.3-14.9-15.3c-8,0-14.5,6.9-14.5,15.1c0,8.3,6.6,15.2,14.7,15.2
		C446,484.5,452.9,478.1,452.9,469.5z"/>
	<path class="st3" d="M505.4,466.2v22.3h-5.2v-22.1c0-7.4-4.7-12.1-10.8-12.1c-6.2,0-12.6,3.6-12.8,12.9v21.2h-5.2v-59h5.2v27.7
		c2.3-5.5,8.5-7.9,13.3-7.9C499,449.2,505.4,455.6,505.4,466.2z"/>
	<path class="st3" d="M552,466.2v22.3h-5.2v-22.1c0-7.4-4.7-12.1-10.8-12.1c-6.2,0-12.6,3.6-12.8,12.9v21.2H518v-38.3h5.2v6.9
		c2.3-5.5,8.5-7.9,13.3-7.9C545.7,449.2,552,455.6,552,466.2z"/>
	<path class="st3" d="M625.6,466.2v22.3h-5.2v-22.1c0-7.4-4.4-12.1-10.7-12.1c-7.2-0.1-12.5,5.3-11.9,14.7l-0.1-0.3v19.8h-5.2v-22.1
		c0-7.5-4.4-12.1-10.5-12.1c-6.2,0-12.1,3.8-12.2,13v21.2h-5.2v-38.3h5.2v6.9c2-5.1,7.5-7.9,13.1-7.9c6.2,0,11.3,3.4,13.4,9.3
		c2.8-7.6,9.4-9.3,14.1-9.3C619.7,449.2,625.6,455.6,625.6,466.2z"/>
	<path class="st3" d="M673.9,471.5h-33c0.9,8.2,6.6,13,14.4,13c5.2,0,9.9-2.5,12.5-6.7l4.5,2c-3.4,6.2-9.9,9.8-17.1,9.8
		c-10.8,0-19.5-8.1-19.5-20.3c0-12.1,8.7-20,19.5-20c10.9,0,18.9,7.9,18.9,20C674,470,674,470.8,673.9,471.5z M668.9,467
		c-0.7-8-6.2-12.8-13.7-12.8s-13.1,4.6-14.1,12.8H668.9z"/>
	<path class="st3" d="M721.6,429.4v59.1h-5.2V481c-2.9,5.2-8.9,8.4-15.3,8.4c-10.7,0-19.4-8.5-19.4-20.2c0-11.6,8.7-20.1,19.4-20.1
		c6.5,0,12.4,3.1,15.3,8.4v-28.1H721.6z M716.3,469.5c0-9.3-7.2-15.3-14.8-15.3c-8,0-14.6,6.6-14.6,15c0,8.5,6.6,15.3,14.6,15.3
		C709.4,484.5,716.3,478.3,716.3,469.5z"/>
	<path class="st3" d="M733.3,436.1c0-2.2,1.9-3.8,4-3.8c2.3,0,4.1,1.6,4.1,3.8c0,2.1-1.8,3.7-4.1,3.7
		C735.2,439.8,733.3,438.2,733.3,436.1z M734.7,450.2h5.2v38.3h-5.2V450.2z"/>
	<path class="st3" d="M782.5,454.4l-25.2,29.1h25.2v5h-32.6v-4.1l24.9-29.2h-24.2v-5h31.9L782.5,454.4L782.5,454.4z"/>
	<path class="st3" d="M791.4,436.1c0-2.2,1.9-3.8,4-3.8c2.3,0,4.1,1.6,4.1,3.8c0,2.1-1.8,3.7-4.1,3.7
		C793.2,439.8,791.4,438.2,791.4,436.1z M792.8,450.2h5.2v38.3h-5.2V450.2z"/>
	<path class="st3" d="M845.2,466.2v22.3H840v-22.1c0-7.4-4.7-12.1-10.8-12.1c-6.2,0-12.6,3.6-12.8,12.9v21.2h-5.2v-38.3h5.2v6.9
		c2.3-5.5,8.5-7.9,13.3-7.9C838.9,449.2,845.2,455.6,845.2,466.2z"/>
</g>
</svg>
