<?xml version="1.0" encoding="utf-8"?>
<!-- Generator: Adobe Illustrator 26.0.1, SVG Export Plug-In . SVG Version: 6.00 Build 0)  -->
<svg version="1.1" id="Layer_1" xmlns="http://www.w3.org/2000/svg" xmlns:xlink="http://www.w3.org/1999/xlink" x="0px" y="0px"
	 viewBox="0 0 1080 1080" style="enable-background:new 0 0 1080 1080;" xml:space="preserve">
<style type="text/css">
	.st0{fill:url(#SVGID_1_);}
	.st1{fill:url(#SVGID_00000165229122187703556170000014924377794400596102_);}
	.st2{fill:url(#SVGID_00000168823536833714825560000007879843822834854801_);}
	.st3{fill:url(#SVGID_00000162335467957694914500000006489141268270741437_);}
	.st4{fill:url(#SVGID_00000040539633238201089000000016390527572989982859_);}
	.st5{fill:url(#SVGID_00000080177146488441385170000015379039099941704122_);}
	.st6{fill:url(#SVGID_00000065043501620954436850000005930606462706338193_);}
	.st7{fill:url(#SVGID_00000009576688402604671820000004021100659989075860_);}
</style>
<g>
	<g>
		<linearGradient id="SVGID_1_" gradientUnits="userSpaceOnUse" x1="239.3815" y1="640.7108" x2="410.9254" y2="640.7108">
			<stop  offset="0" style="stop-color:#845714"/>
			<stop  offset="0.0978" style="stop-color:#A37628"/>
			<stop  offset="0.226" style="stop-color:#C89D45"/>
			<stop  offset="0.3319" style="stop-color:#E1B95B"/>
			<stop  offset="0.4016" style="stop-color:#EAC464"/>
			<stop  offset="0.4866" style="stop-color:#FADC7F"/>
			<stop  offset="0.5414" style="stop-color:#FFE88C"/>
			<stop  offset="0.607" style="stop-color:#FFE689"/>
			<stop  offset="0.6346" style="stop-color:#FCDF82"/>
			<stop  offset="0.6551" style="stop-color:#F5D475"/>
			<stop  offset="0.6719" style="stop-color:#ECC464"/>
			<stop  offset="0.6819" style="stop-color:#E4B756"/>
			<stop  offset="0.7399" style="stop-color:#A87A26"/>
			<stop  offset="0.7746" style="stop-color:#8C6015"/>
			<stop  offset="0.7942" style="stop-color:#926518"/>
			<stop  offset="0.8185" style="stop-color:#A17322"/>
			<stop  offset="0.8451" style="stop-color:#BB8D34"/>
			<stop  offset="0.8733" style="stop-color:#E4B655"/>
			<stop  offset="0.8736" style="stop-color:#E4B756"/>
			<stop  offset="1" style="stop-color:#E4B756"/>
		</linearGradient>
		<path class="st0" d="M409.46,646.95c0,0-0.18-0.44-0.53-1.3c-0.09-0.21-0.18-0.46-0.3-0.72c-0.13-0.25-0.28-0.53-0.44-0.83
			c-0.16-0.3-0.32-0.63-0.53-0.96c-0.22-0.32-0.46-0.67-0.71-1.03c-1.04-1.41-2.57-3.02-4.78-4.21c-1.09-0.62-2.37-1.05-3.76-1.37
			c-1.4-0.29-2.92-0.36-4.51-0.26c-3.17,0.28-6.65,1.4-9.74,3.65c-3.07,2.21-5.84,5.5-7.05,9.62c-0.61,2.05-0.84,4.26-0.64,6.52
			c0.03,0.28,0.04,0.57,0.07,0.85l0.15,0.85l0.15,0.85c0.04,0.29,0.15,0.57,0.22,0.85c0.17,0.55,0.29,1.16,0.5,1.68l0.32,0.91
			c0.11,0.31,0.23,0.55,0.34,0.83c0.9,2.21,2.21,4.37,3.84,6.26c1.65,1.88,3.65,3.51,5.95,4.73c2.28,1.25,4.86,2.05,7.54,2.5
			c2.7,0.41,5.52,0.44,8.34,0.01c5.64-0.8,11.24-3.33,15.78-7.27c4.55-3.93,7.96-9.36,9.44-15.51c1.52-6.13,1.22-12.91-0.33-19.42
			c-0.77-3.25-2.05-6.35-3.64-9.36c-1.58-3-3.57-5.82-5.86-8.38c-2.32-2.53-4.92-4.83-7.84-6.65c-1.46-0.91-2.98-1.73-4.57-2.41
			c-1.59-0.67-3.23-1.23-4.92-1.67c-1.69-0.43-3.41-0.7-5.16-0.86c-0.87-0.06-1.75-0.12-2.64-0.12l-0.66-0.01
			c-0.11,0-0.03-0.01-0.11,0l-0.18,0.01l-0.35,0.01l-1.42,0.06l-1.42,0.06c-0.48,0.02-0.95,0.04-1.39,0.09l-2.7,0.26
			c-0.9,0.08-1.81,0.26-2.72,0.38l-1.36,0.21c-0.45,0.08-0.9,0.19-1.35,0.28c-3.61,0.69-7.15,1.78-10.56,3.18
			c-3.41,1.4-6.7,3.12-9.77,5.2c-6.16,4.15-11.49,9.52-16.15,15.4c-2.35,2.93-4.56,5.98-6.73,9.07c-2.14,3.1-4.24,6.24-6.41,9.34
			c-2.17,3.1-4.41,6.16-6.86,9.09c-0.61,0.73-1.26,1.43-1.89,2.15l-1,1.03l-0.5,0.51l-0.25,0.26c0,0.01-0.14,0.14-0.17,0.16
			l-0.13,0.12l-2.05,1.87c-0.32,0.32-0.73,0.61-1.1,0.92l-1.14,0.9c-0.38,0.3-0.75,0.62-1.14,0.89L313.5,667
			c-0.78,0.54-1.55,1.11-2.38,1.57c-0.82,0.48-1.62,0.99-2.45,1.44c-0.85,0.43-1.69,0.86-2.53,1.28c-3.43,1.6-7.01,2.84-10.67,3.66
			c-3.68,0.78-7.43,1.09-11.16,0.97c-0.93-0.06-1.86-0.13-2.79-0.19c-0.92-0.13-1.84-0.28-2.76-0.42c-0.92-0.11-1.81-0.38-2.71-0.6
			c-0.9-0.23-1.8-0.43-2.66-0.77c-0.87-0.31-1.74-0.61-2.6-0.95c-0.83-0.39-1.66-0.78-2.49-1.17l-0.62-0.29l-0.16-0.07l-0.23-0.13
			l-0.28-0.16l-1.1-0.64l-0.55-0.32c-0.18-0.1-0.37-0.21-0.57-0.35l-1.17-0.8c-0.38-0.27-0.79-0.53-1.15-0.81l-1.06-0.86
			c-0.35-0.29-0.71-0.56-1.05-0.87l-0.99-0.93c-0.32-0.32-0.66-0.62-0.97-0.95l-0.9-1.01c-0.29-0.34-0.61-0.66-0.88-1.02l-0.82-1.07
			c-2.15-2.87-3.81-6.07-4.92-9.39c-1.1-3.32-1.63-6.77-1.64-10.16c-0.01-3.39,0.5-6.72,1.49-9.86c1-3.13,2.48-6.06,4.37-8.62
			c1.89-2.57,4.2-4.75,6.74-6.45c2.54-1.71,5.33-2.88,8.11-3.61c0.7-0.16,1.4-0.31,2.09-0.47c0.7-0.1,1.39-0.19,2.08-0.28l0.52-0.07
			c0.02-0.01,0.32-0.03,0.25-0.02l0.12,0l0.24-0.01c0.32-0.01,0.63-0.02,0.94-0.04l0.23-0.01l0.29,0.01l0.58,0.03
			c0.38,0.02,0.77,0.04,1.15,0.07c2.84,0.33,5.5,1.33,7.73,2.78c4.51,2.89,7.21,7.51,7.93,11.95c0.04,0.28,0.07,0.56,0.11,0.83
			l0.05,0.41l0.02,0.21l0.01,0.1c0-0.05,0.02,0.18,0.02,0.19c0,0.51,0.04,0.92-0.02,1.6c-0.02,0.63-0.15,1.16-0.24,1.71
			c-0.15,0.53-0.27,1.07-0.49,1.57c-0.76,2.03-2.09,3.67-3.59,4.85c-1.53,1.16-3.24,1.86-4.88,2.14c-0.21,0.03-0.41,0.05-0.62,0.07
			l-0.3,0.03l-0.15,0.02l-0.13,0.01l-0.07,0c-0.18,0-0.36,0-0.54,0.01c-0.23-0.02-0.45-0.03-0.67-0.05
			c-0.83-0.11-1.59-0.34-2.27-0.68c-0.68-0.34-1.26-0.77-1.75-1.26c-0.49-0.48-0.89-1.01-1.18-1.56c-0.31-0.54-0.51-1.1-0.64-1.64
			c-0.06-0.27-0.12-0.54-0.14-0.8c-0.01-0.13-0.03-0.26-0.04-0.39c0,0.04-0.01-0.11-0.01-0.11l0-0.04l0-0.09l0.01-0.17
			c-0.01-0.4,0.13-0.99,0.28-1.41c0.1-0.2,0.19-0.4,0.28-0.59c0.11-0.18,0.24-0.33,0.35-0.49c0.11-0.16,0.24-0.29,0.37-0.4
			c0.13-0.12,0.25-0.23,0.37-0.33c0.27-0.16,0.51-0.33,0.74-0.43c0.24-0.08,0.45-0.16,0.62-0.22c0.18-0.05,0.34-0.05,0.47-0.08
			c0.25-0.03,0.37-0.05,0.37-0.05c0.12-0.02,0.24,0.07,0.26,0.19c0.02,0.11-0.05,0.22-0.16,0.25l-0.05,0.01c0,0-0.11,0.03-0.32,0.1
			c-0.1,0.03-0.24,0.06-0.39,0.12c-0.14,0.08-0.31,0.16-0.49,0.26c-0.18,0.11-0.35,0.28-0.55,0.43c-0.08,0.1-0.17,0.2-0.26,0.31
			c-0.09,0.1-0.19,0.21-0.25,0.35c-0.07,0.13-0.15,0.26-0.22,0.41c-0.05,0.15-0.1,0.31-0.15,0.47c-0.05,0.33-0.12,0.58-0.06,1.07
			c0.12,1.52,1.26,3.51,3.34,4.25c0.51,0.18,1.07,0.3,1.63,0.32c0.13,0,0.25,0,0.38,0c0.18-0.02,0.35-0.04,0.53-0.06
			c0.3-0.06,0.6-0.13,0.9-0.2c1.26-0.35,2.5-1.02,3.55-1.99c1.02-0.99,1.9-2.26,2.31-3.74c0.13-0.36,0.17-0.75,0.26-1.13
			c0.03-0.39,0.09-0.8,0.07-1.13c0.02-0.29-0.05-0.85-0.09-1.33c0-0.05,0,0.12-0.01,0.01l-0.02-0.08l-0.03-0.16l-0.07-0.32
			c-0.04-0.22-0.09-0.43-0.13-0.65c-0.44-1.72-1.19-3.43-2.31-4.95c-1.1-1.53-2.6-2.86-4.33-3.84c-1.74-0.97-3.72-1.6-5.8-1.77
			l-0.71-0.01l-0.36-0.01l-0.18-0.01l-0.23,0.02c-0.31,0.02-0.63,0.05-0.94,0.07l-0.24,0.02l-0.12,0.01c-0.15,0.01,0.07-0.01,0.01,0
			l-0.43,0.08c-0.57,0.1-1.14,0.2-1.71,0.3c-0.56,0.15-1.12,0.3-1.69,0.46c-2.24,0.69-4.4,1.74-6.38,3.13
			c-1.98,1.39-3.75,3.18-5.21,5.25c-1.47,2.07-2.63,4.45-3.4,7c-0.79,2.55-1.21,5.29-1.19,8.07c0,2.79,0.47,5.62,1.35,8.36
			c0.87,2.74,2.19,5.39,3.93,7.79l0.66,0.9c0.22,0.3,0.48,0.57,0.72,0.86l0.74,0.85c0.25,0.28,0.53,0.53,0.8,0.8l0.8,0.81
			c0.27,0.27,0.57,0.5,0.86,0.75l0.87,0.75c0.29,0.25,0.59,0.44,0.89,0.67l0.89,0.66l0.23,0.17l0.27,0.17l0.54,0.33l1.08,0.67
			l0.27,0.17c0,0,0.18,0.11,0.05,0.03l0.13,0.07l0.53,0.27c0.7,0.36,1.41,0.72,2.12,1.08c0.73,0.31,1.48,0.58,2.22,0.89
			c0.73,0.33,1.51,0.53,2.28,0.76c0.78,0.22,1.54,0.5,2.34,0.62c0.8,0.16,1.6,0.31,2.4,0.47c0.82,0.09,1.63,0.18,2.45,0.27
			c3.29,0.24,6.67,0.1,10.03-0.47c3.35-0.62,6.67-1.62,9.89-2.97c3.21-1.35,6.3-3.16,9.16-5.19l1.05-0.79
			c0.35-0.27,0.7-0.5,1.05-0.83l2.1-1.82l0.13-0.11c0.06-0.05,0,0,0.08-0.08l0.24-0.24l0.48-0.47l0.96-0.95
			c0.61-0.67,1.25-1.31,1.84-2c2.42-2.72,4.64-5.69,6.8-8.73c2.17-3.04,4.29-6.17,6.47-9.28c2.16-3.13,4.38-6.25,6.77-9.27
			c4.77-6.03,10.14-11.81,16.57-16.36c6.4-4.56,13.72-7.95,21.38-9.74c0.48-0.12,0.95-0.25,1.43-0.35l1.45-0.28
			c0.97-0.17,1.92-0.4,2.9-0.52l2.95-0.39c0.5-0.07,0.97-0.12,1.44-0.15l1.42-0.11l1.41-0.11l0.35-0.03l0.18-0.01l0.25-0.01
			l0.76-0.02c1.01-0.05,2.01-0.02,3.02,0.02c2.01,0.11,4.03,0.35,6.01,0.77c1.98,0.43,3.92,1.01,5.8,1.74
			c1.88,0.74,3.68,1.64,5.41,2.65c3.46,2.03,6.57,4.57,9.25,7.45c2.68,2.89,4.99,6.06,6.85,9.47c1.88,3.38,3.31,7.04,4.21,10.76
			l0.08,0.33l0.09,0.4l0.14,0.69c0.09,0.46,0.2,0.92,0.28,1.38c0.15,0.93,0.34,1.85,0.44,2.79c0.27,1.86,0.38,3.75,0.44,5.62
			c0.03,3.76-0.38,7.52-1.34,11.13c-0.49,1.8-1.09,3.57-1.82,5.27c-0.75,1.7-1.61,3.33-2.59,4.88c-1.96,3.09-4.4,5.83-7.12,8.11
			c-2.73,2.28-5.77,4.1-8.93,5.43c-3.16,1.35-6.47,2.21-9.77,2.6c-3.3,0.4-6.62,0.28-9.8-0.3c-3.17-0.61-6.22-1.71-8.91-3.31
			c-1.35-0.8-2.62-1.69-3.77-2.7c-1.15-1.01-2.21-2.1-3.14-3.26c-1.86-2.35-3.26-4.88-4.23-7.55c-0.12-0.33-0.26-0.69-0.36-0.99
			c-0.1-0.31-0.19-0.62-0.29-0.93c-0.23-0.69-0.33-1.35-0.5-2.02c-0.07-0.34-0.17-0.66-0.2-1c-0.04-0.34-0.09-0.68-0.13-1.01
			c-0.04-0.34-0.08-0.67-0.12-1c-0.02-0.34-0.02-0.67-0.04-1.01c-0.1-2.68,0.31-5.3,1.15-7.68c0.84-2.38,2.11-4.5,3.61-6.26
			c1.5-1.78,3.24-3.2,5.03-4.34c3.6-2.28,7.49-3.27,10.97-3.36c1.75,0.01,3.4,0.22,4.9,0.64c1.48,0.45,2.83,1.02,3.95,1.77
			c2.28,1.45,3.72,3.28,4.66,4.81c0.22,0.39,0.43,0.77,0.63,1.11c0.18,0.35,0.31,0.71,0.45,1.02c0.14,0.32,0.26,0.61,0.37,0.87
			c0.1,0.27,0.16,0.52,0.24,0.74C409.32,646.49,409.46,646.95,409.46,646.95z"/>
		
			<linearGradient id="SVGID_00000062174399614256055050000009515570399271236026_" gradientUnits="userSpaceOnUse" x1="-2226.0605" y1="685.8906" x2="-2226.0605" y2="610.8672" gradientTransform="matrix(-1 0 0 1 -1490.434 0)">
			<stop  offset="0" style="stop-color:#845714"/>
			<stop  offset="0.0978" style="stop-color:#A37628"/>
			<stop  offset="0.226" style="stop-color:#C89D45"/>
			<stop  offset="0.3319" style="stop-color:#E1B95B"/>
			<stop  offset="0.4016" style="stop-color:#EAC464"/>
			<stop  offset="0.4866" style="stop-color:#FADC7F"/>
			<stop  offset="0.5414" style="stop-color:#FFE88C"/>
			<stop  offset="0.607" style="stop-color:#FFE689"/>
			<stop  offset="0.6346" style="stop-color:#FCDF82"/>
			<stop  offset="0.6551" style="stop-color:#F5D475"/>
			<stop  offset="0.6719" style="stop-color:#ECC464"/>
			<stop  offset="0.6819" style="stop-color:#E4B756"/>
			<stop  offset="0.7399" style="stop-color:#A87A26"/>
			<stop  offset="0.7746" style="stop-color:#8C6015"/>
			<stop  offset="0.7942" style="stop-color:#926518"/>
			<stop  offset="0.8185" style="stop-color:#A17322"/>
			<stop  offset="0.8451" style="stop-color:#BB8D34"/>
			<stop  offset="0.8733" style="stop-color:#E4B655"/>
			<stop  offset="0.8736" style="stop-color:#E4B756"/>
			<stop  offset="1" style="stop-color:#E4B756"/>
		</linearGradient>
		<path style="fill:url(#SVGID_00000062174399614256055050000009515570399271236026_);" d="M668.86,646.95c0,0,0.18-0.44,0.53-1.3
			c0.09-0.21,0.18-0.46,0.3-0.72c0.13-0.25,0.28-0.53,0.44-0.83c0.16-0.3,0.32-0.63,0.53-0.96c0.22-0.32,0.46-0.67,0.71-1.03
			c1.04-1.41,2.57-3.02,4.78-4.21c1.09-0.62,2.37-1.05,3.76-1.37c1.4-0.29,2.92-0.36,4.51-0.26c3.17,0.28,6.65,1.4,9.74,3.65
			c3.07,2.21,5.84,5.5,7.05,9.62c0.61,2.05,0.84,4.26,0.64,6.52c-0.03,0.28-0.04,0.57-0.07,0.85l-0.15,0.85l-0.15,0.85
			c-0.04,0.29-0.15,0.57-0.22,0.85c-0.17,0.55-0.29,1.16-0.5,1.68l-0.32,0.91c-0.11,0.31-0.23,0.55-0.34,0.83
			c-0.9,2.21-2.21,4.37-3.84,6.26c-1.65,1.88-3.65,3.51-5.95,4.73c-2.28,1.25-4.86,2.05-7.54,2.5c-2.69,0.41-5.52,0.44-8.34,0.01
			c-5.64-0.8-11.24-3.33-15.78-7.27c-4.55-3.93-7.96-9.36-9.44-15.51c-1.53-6.13-1.22-12.91,0.33-19.42
			c0.77-3.25,2.05-6.35,3.64-9.36c1.58-3,3.57-5.82,5.86-8.38c2.32-2.53,4.92-4.83,7.84-6.65c1.46-0.91,2.98-1.73,4.57-2.41
			c1.59-0.67,3.23-1.23,4.92-1.67c1.69-0.43,3.41-0.7,5.16-0.86c0.87-0.06,1.75-0.12,2.64-0.12l0.66-0.01c0.11,0,0.03-0.01,0.11,0
			l0.18,0.01l0.35,0.01l1.42,0.06l1.42,0.06c0.48,0.02,0.95,0.04,1.39,0.09l2.7,0.26c0.9,0.08,1.81,0.26,2.72,0.38l1.36,0.21
			c0.45,0.08,0.9,0.19,1.35,0.28c3.61,0.69,7.15,1.78,10.56,3.18c3.41,1.4,6.7,3.12,9.77,5.2c6.16,4.15,11.49,9.52,16.15,15.4
			c2.35,2.93,4.56,5.98,6.73,9.07c2.14,3.1,4.24,6.24,6.41,9.34c2.17,3.1,4.41,6.16,6.86,9.09c0.61,0.73,1.26,1.43,1.89,2.15l1,1.03
			l0.5,0.51l0.25,0.26c0,0.01,0.14,0.14,0.17,0.16l0.13,0.12l2.05,1.87c0.32,0.32,0.73,0.61,1.1,0.92l1.14,0.9
			c0.38,0.3,0.75,0.62,1.14,0.89l1.17,0.82c0.78,0.54,1.55,1.11,2.38,1.57c0.82,0.48,1.62,0.99,2.45,1.44
			c0.85,0.43,1.69,0.86,2.53,1.28c3.43,1.6,7.01,2.84,10.67,3.66c3.68,0.78,7.43,1.09,11.16,0.97c0.93-0.06,1.86-0.13,2.79-0.19
			c0.92-0.13,1.84-0.28,2.76-0.42c0.92-0.11,1.81-0.38,2.71-0.6c0.9-0.23,1.8-0.43,2.66-0.77c0.87-0.31,1.74-0.61,2.6-0.95
			c0.83-0.39,1.66-0.78,2.49-1.17l0.62-0.29l0.16-0.07l0.23-0.13l0.28-0.16l1.1-0.64l0.55-0.32c0.18-0.1,0.37-0.21,0.57-0.35
			l1.17-0.8c0.38-0.27,0.79-0.53,1.15-0.81l1.06-0.86c0.35-0.29,0.71-0.56,1.05-0.87l0.99-0.93c0.32-0.32,0.66-0.62,0.97-0.95
			l0.9-1.01c0.29-0.34,0.61-0.66,0.88-1.02l0.82-1.07c2.15-2.87,3.81-6.07,4.92-9.39c1.1-3.32,1.63-6.77,1.64-10.16
			c0.01-3.39-0.5-6.72-1.49-9.86c-1-3.13-2.48-6.06-4.37-8.62c-1.89-2.57-4.2-4.75-6.74-6.45c-2.54-1.71-5.33-2.88-8.11-3.61
			c-0.7-0.16-1.4-0.31-2.09-0.47c-0.7-0.1-1.39-0.19-2.08-0.28l-0.52-0.07c-0.02-0.01-0.32-0.03-0.25-0.02l-0.12,0l-0.24-0.01
			c-0.32-0.01-0.63-0.02-0.94-0.04l-0.24-0.01l-0.29,0.01l-0.58,0.03c-0.38,0.02-0.77,0.04-1.15,0.07c-2.84,0.33-5.5,1.33-7.73,2.78
			c-4.51,2.89-7.21,7.51-7.93,11.95c-0.04,0.28-0.07,0.56-0.11,0.83l-0.05,0.41l-0.02,0.21l-0.01,0.1c0-0.05-0.02,0.18-0.02,0.19
			c0,0.51-0.04,0.92,0.02,1.6c0.02,0.63,0.15,1.16,0.24,1.71c0.15,0.53,0.27,1.07,0.49,1.57c0.76,2.03,2.09,3.67,3.59,4.85
			c1.53,1.16,3.24,1.86,4.88,2.14c0.21,0.03,0.41,0.05,0.62,0.07l0.3,0.03l0.15,0.02l0.13,0.01l0.07,0c0.18,0,0.36,0,0.54,0.01
			c0.23-0.02,0.45-0.03,0.67-0.05c0.83-0.11,1.59-0.34,2.27-0.68c0.68-0.34,1.26-0.77,1.75-1.26c0.49-0.48,0.89-1.01,1.18-1.56
			c0.31-0.54,0.51-1.1,0.64-1.64c0.06-0.27,0.12-0.54,0.14-0.8c0.01-0.13,0.03-0.26,0.04-0.39c0,0.04,0.01-0.11,0.01-0.11l0-0.04
			l0-0.09l-0.01-0.17c0.01-0.4-0.13-0.99-0.28-1.41c-0.1-0.2-0.19-0.4-0.28-0.59c-0.11-0.18-0.24-0.33-0.35-0.49
			c-0.11-0.16-0.24-0.29-0.37-0.4c-0.13-0.12-0.25-0.23-0.37-0.33c-0.27-0.16-0.51-0.33-0.74-0.43c-0.24-0.08-0.45-0.16-0.62-0.22
			c-0.18-0.05-0.34-0.05-0.47-0.08c-0.25-0.03-0.37-0.05-0.37-0.05c-0.12-0.02-0.24,0.07-0.26,0.19c-0.02,0.11,0.05,0.22,0.16,0.25
			l0.05,0.01c0,0,0.11,0.03,0.32,0.1c0.1,0.03,0.24,0.06,0.39,0.12c0.14,0.08,0.31,0.16,0.49,0.26c0.18,0.11,0.35,0.28,0.55,0.43
			c0.08,0.1,0.17,0.2,0.26,0.31c0.09,0.1,0.19,0.21,0.25,0.35c0.07,0.13,0.16,0.26,0.22,0.41c0.05,0.15,0.1,0.31,0.15,0.47
			c0.05,0.33,0.12,0.58,0.06,1.07c-0.12,1.52-1.26,3.51-3.34,4.25c-0.51,0.18-1.07,0.3-1.63,0.32c-0.13,0-0.25,0-0.38,0
			c-0.18-0.02-0.35-0.04-0.53-0.06c-0.3-0.06-0.6-0.13-0.9-0.2c-1.26-0.35-2.5-1.02-3.55-1.99c-1.02-0.99-1.9-2.26-2.31-3.74
			c-0.13-0.36-0.17-0.75-0.26-1.13c-0.03-0.39-0.09-0.8-0.07-1.13c-0.02-0.29,0.05-0.85,0.09-1.33c0-0.05,0,0.12,0.01,0.01
			l0.02-0.08l0.03-0.16l0.07-0.32c0.04-0.22,0.09-0.43,0.13-0.65c0.44-1.72,1.19-3.43,2.31-4.95c1.1-1.53,2.6-2.86,4.33-3.84
			c1.74-0.97,3.72-1.6,5.8-1.77l0.71-0.01l0.36-0.01l0.18-0.01l0.23,0.02c0.31,0.02,0.63,0.05,0.94,0.07l0.24,0.02l0.12,0.01
			c0.15,0.01-0.07-0.01-0.01,0l0.43,0.08c0.57,0.1,1.14,0.2,1.71,0.3c0.56,0.15,1.12,0.3,1.69,0.46c2.24,0.69,4.4,1.74,6.38,3.13
			c1.98,1.39,3.75,3.18,5.21,5.25c1.47,2.07,2.63,4.45,3.4,7c0.79,2.55,1.21,5.29,1.19,8.07c0,2.79-0.47,5.62-1.35,8.36
			c-0.87,2.74-2.19,5.39-3.93,7.79l-0.66,0.9c-0.22,0.3-0.48,0.57-0.72,0.86l-0.74,0.85c-0.25,0.28-0.53,0.53-0.8,0.8l-0.8,0.81
			c-0.27,0.27-0.58,0.5-0.86,0.75l-0.87,0.75c-0.29,0.25-0.6,0.44-0.89,0.67l-0.89,0.66l-0.23,0.17l-0.27,0.17l-0.54,0.33
			l-1.08,0.67l-0.27,0.17c0,0-0.18,0.11-0.05,0.03l-0.13,0.07l-0.53,0.27c-0.7,0.36-1.41,0.72-2.12,1.08
			c-0.73,0.31-1.48,0.58-2.22,0.89c-0.73,0.33-1.51,0.53-2.28,0.76c-0.78,0.22-1.54,0.5-2.34,0.62c-0.8,0.16-1.6,0.31-2.4,0.47
			c-0.82,0.09-1.63,0.18-2.45,0.27c-3.29,0.24-6.67,0.1-10.03-0.47c-3.35-0.62-6.67-1.62-9.89-2.97c-3.21-1.35-6.3-3.16-9.16-5.19
			l-1.05-0.79c-0.35-0.27-0.7-0.5-1.05-0.83l-2.1-1.82l-0.13-0.11c-0.06-0.05,0,0-0.08-0.08l-0.24-0.24l-0.48-0.47l-0.96-0.95
			c-0.61-0.67-1.25-1.31-1.84-2c-2.42-2.72-4.64-5.69-6.8-8.73c-2.17-3.04-4.29-6.17-6.47-9.28c-2.16-3.13-4.38-6.25-6.77-9.27
			c-4.77-6.03-10.14-11.81-16.57-16.36c-6.4-4.56-13.72-7.95-21.38-9.74c-0.48-0.12-0.95-0.25-1.43-0.35l-1.45-0.28
			c-0.97-0.17-1.92-0.4-2.9-0.52l-2.95-0.39c-0.5-0.07-0.97-0.12-1.44-0.15l-1.42-0.11l-1.41-0.11l-0.35-0.03l-0.18-0.01l-0.25-0.01
			l-0.76-0.02c-1.01-0.05-2.01-0.02-3.02,0.02c-2.01,0.11-4.03,0.35-6.01,0.77c-1.98,0.43-3.92,1.01-5.8,1.74
			c-1.88,0.74-3.68,1.64-5.41,2.65c-3.46,2.03-6.57,4.57-9.25,7.45c-2.68,2.89-4.99,6.06-6.85,9.47c-1.88,3.38-3.31,7.04-4.21,10.76
			l-0.08,0.33l-0.09,0.4l-0.14,0.69c-0.09,0.46-0.2,0.92-0.28,1.38c-0.15,0.93-0.34,1.85-0.44,2.79c-0.27,1.86-0.38,3.75-0.44,5.62
			c-0.03,3.76,0.38,7.52,1.34,11.13c0.49,1.8,1.09,3.57,1.82,5.27c0.75,1.7,1.61,3.33,2.59,4.88c1.96,3.09,4.39,5.83,7.12,8.11
			c2.73,2.28,5.77,4.1,8.93,5.43c3.16,1.35,6.47,2.21,9.77,2.6c3.3,0.4,6.62,0.28,9.8-0.3c3.17-0.61,6.22-1.71,8.91-3.31
			c1.35-0.8,2.62-1.69,3.77-2.7c1.15-1.01,2.21-2.1,3.14-3.26c1.86-2.35,3.26-4.88,4.23-7.55c0.12-0.33,0.26-0.69,0.36-0.99
			c0.1-0.31,0.19-0.62,0.29-0.93c0.23-0.69,0.33-1.35,0.5-2.02c0.07-0.34,0.17-0.66,0.2-1c0.04-0.34,0.09-0.68,0.13-1.01
			c0.04-0.34,0.08-0.67,0.12-1c0.02-0.34,0.02-0.67,0.04-1.01c0.1-2.68-0.31-5.3-1.15-7.68c-0.84-2.38-2.11-4.5-3.61-6.26
			c-1.5-1.78-3.24-3.2-5.03-4.34c-3.6-2.28-7.48-3.27-10.97-3.36c-1.75,0.01-3.4,0.22-4.9,0.64c-1.48,0.45-2.83,1.02-3.95,1.77
			c-2.28,1.45-3.72,3.28-4.66,4.81c-0.22,0.39-0.43,0.77-0.63,1.11c-0.18,0.35-0.31,0.71-0.45,1.02c-0.14,0.32-0.26,0.61-0.37,0.87
			c-0.1,0.27-0.16,0.52-0.24,0.74C669,646.49,668.86,646.95,668.86,646.95z"/>
		
			<linearGradient id="SVGID_00000054968726816786775940000007964232400425960864_" gradientUnits="userSpaceOnUse" x1="527.491" y1="619.276" x2="527.491" y2="423.633">
			<stop  offset="0" style="stop-color:#845714"/>
			<stop  offset="0.0978" style="stop-color:#A37628"/>
			<stop  offset="0.226" style="stop-color:#C89D45"/>
			<stop  offset="0.3319" style="stop-color:#E1B95B"/>
			<stop  offset="0.4016" style="stop-color:#EAC464"/>
			<stop  offset="0.4866" style="stop-color:#FADC7F"/>
			<stop  offset="0.5414" style="stop-color:#FFE88C"/>
			<stop  offset="0.607" style="stop-color:#FFE689"/>
			<stop  offset="0.6346" style="stop-color:#FCDF82"/>
			<stop  offset="0.6551" style="stop-color:#F5D475"/>
			<stop  offset="0.6719" style="stop-color:#ECC464"/>
			<stop  offset="0.6819" style="stop-color:#E4B756"/>
			<stop  offset="0.7399" style="stop-color:#A87A26"/>
			<stop  offset="0.7746" style="stop-color:#8C6015"/>
			<stop  offset="0.7942" style="stop-color:#926518"/>
			<stop  offset="0.8185" style="stop-color:#A17322"/>
			<stop  offset="0.8451" style="stop-color:#BB8D34"/>
			<stop  offset="0.8733" style="stop-color:#E4B655"/>
			<stop  offset="0.8736" style="stop-color:#E4B756"/>
			<stop  offset="1" style="stop-color:#E4B756"/>
		</linearGradient>
		<path style="fill:url(#SVGID_00000054968726816786775940000007964232400425960864_);" d="M690.04,586.44
			c-0.77,0-1.42-0.6-1.47-1.39c-5.17-84.93-75.93-151.46-161.08-151.46c-85.15,0-155.91,66.53-161.08,151.46
			c-0.05,0.81-0.76,1.43-1.56,1.38c-0.81-0.05-1.43-0.75-1.38-1.56c5.27-86.49,77.31-154.24,164.03-154.24
			c86.71,0,158.76,67.75,164.03,154.24c0.05,0.81-0.57,1.51-1.38,1.56C690.11,586.44,690.08,586.44,690.04,586.44z"/>
		<g>
			
				<linearGradient id="SVGID_00000042008038248360256820000007825342243700934796_" gradientUnits="userSpaceOnUse" x1="539.1567" y1="673.7505" x2="539.1567" y2="504.1446">
				<stop  offset="0" style="stop-color:#845714"/>
				<stop  offset="0.0978" style="stop-color:#A37628"/>
				<stop  offset="0.226" style="stop-color:#C89D45"/>
				<stop  offset="0.3319" style="stop-color:#E1B95B"/>
				<stop  offset="0.4016" style="stop-color:#EAC464"/>
				<stop  offset="0.4866" style="stop-color:#FADC7F"/>
				<stop  offset="0.5414" style="stop-color:#FFE88C"/>
				<stop  offset="0.607" style="stop-color:#FFE689"/>
				<stop  offset="0.6346" style="stop-color:#FCDF82"/>
				<stop  offset="0.6551" style="stop-color:#F5D475"/>
				<stop  offset="0.6719" style="stop-color:#ECC464"/>
				<stop  offset="0.6819" style="stop-color:#E4B756"/>
				<stop  offset="0.7399" style="stop-color:#A87A26"/>
				<stop  offset="0.7746" style="stop-color:#8C6015"/>
				<stop  offset="0.7942" style="stop-color:#926518"/>
				<stop  offset="0.8185" style="stop-color:#A17322"/>
				<stop  offset="0.8451" style="stop-color:#BB8D34"/>
				<stop  offset="0.8733" style="stop-color:#E4B655"/>
				<stop  offset="0.8736" style="stop-color:#E4B756"/>
				<stop  offset="1" style="stop-color:#E4B756"/>
			</linearGradient>
			<path style="fill:url(#SVGID_00000042008038248360256820000007825342243700934796_);" d="M531.27,673.75l-60.81-142.71v113.32
				c0,10.42,1.04,16.93,3.13,19.51c2.86,3.5,7.39,5.25,13.58,5.25h5.57v4.63h-54.78v-4.63h5.57c6.65,0,11.37-2.17,14.16-6.5
				c1.7-2.67,2.55-8.76,2.55-18.26V533.54c0-7.5-0.77-12.92-2.32-16.26c-1.08-2.42-3.08-4.44-5.98-6.07
				c-2.9-1.63-7.56-2.44-13.99-2.44v-4.63h44.56l57.1,132.71l56.17-132.71h44.56v4.63h-5.45c-6.73,0-11.49,2.17-14.27,6.5
				c-1.7,2.67-2.55,8.76-2.55,18.26v110.82c0,10.42,1.08,16.93,3.25,19.51c2.86,3.5,7.39,5.25,13.58,5.25h5.45v4.63h-66.85v-4.63
				h5.57c6.73,0,11.45-2.17,14.16-6.5c1.7-2.67,2.55-8.76,2.55-18.26V531.04L535.1,673.75H531.27z"/>
		</g>
		<g>
			
				<linearGradient id="SVGID_00000169546190221155051480000001369866178817811103_" gradientUnits="userSpaceOnUse" x1="311.9297" y1="639.9207" x2="311.9297" y2="421.9492">
				<stop  offset="0" style="stop-color:#845714"/>
				<stop  offset="0.0978" style="stop-color:#A37628"/>
				<stop  offset="0.226" style="stop-color:#C89D45"/>
				<stop  offset="0.3319" style="stop-color:#E1B95B"/>
				<stop  offset="0.4016" style="stop-color:#EAC464"/>
				<stop  offset="0.4866" style="stop-color:#FADC7F"/>
				<stop  offset="0.5414" style="stop-color:#FFE88C"/>
				<stop  offset="0.607" style="stop-color:#FFE689"/>
				<stop  offset="0.6346" style="stop-color:#FCDF82"/>
				<stop  offset="0.6551" style="stop-color:#F5D475"/>
				<stop  offset="0.6719" style="stop-color:#ECC464"/>
				<stop  offset="0.6819" style="stop-color:#E4B756"/>
				<stop  offset="0.7399" style="stop-color:#A87A26"/>
				<stop  offset="0.7746" style="stop-color:#8C6015"/>
				<stop  offset="0.7942" style="stop-color:#926518"/>
				<stop  offset="0.8185" style="stop-color:#A17322"/>
				<stop  offset="0.8451" style="stop-color:#BB8D34"/>
				<stop  offset="0.8733" style="stop-color:#E4B655"/>
				<stop  offset="0.8736" style="stop-color:#E4B756"/>
				<stop  offset="1" style="stop-color:#E4B756"/>
			</linearGradient>
			<path style="fill:url(#SVGID_00000169546190221155051480000001369866178817811103_);" d="M323.11,487.64
				c-0.48,1.35-2.84,5.79-3.47,6.57c-3.76,4.59-4.72,10.4-4.72,13.95c0,4.13,6.58,128.76,6.58,128.76c-8.47,6.77-15.66,0-15.66,0
				s7.12-111.89,3.67-128.36c0,0-0.61-8.53-6.63-15.99c0,0-5.28-9.46-3.68-21.89l3.6-47.7c0,0,1.06-1.45,1.55,0l0.41,42.53
				c0,0,0,2.28,1.64,2.28c1.64,0,1.06-1.56,0.99-2.18c-0.09-0.61,1.07-42.74,1.07-42.74s1.07-1.76,1.56-0.1l1.06,42.02
				c0,0-0.16,2.59,1.64,2.59c0,0,1.06-0.41,0.81-3.11c-0.24-2.69,0.04-41.55,0.04-41.55s0.8-1.48,1.54-0.31l2.16,42.45
				c0,0-0.07,2.33,1.47,2.33c1.54,0,1.17-2.02,1.23-3.03c0.06-1.02-0.55-41.46-0.55-41.46s0.8-1.32,1.47-0.23l3.7,37.65
				C324.57,460.13,326.12,479.04,323.11,487.64z"/>
		</g>
		<g>
			
				<linearGradient id="SVGID_00000145047747618412730320000002433760715963059620_" gradientUnits="userSpaceOnUse" x1="762.3177" y1="639.9207" x2="762.3177" y2="421.2811">
				<stop  offset="0" style="stop-color:#845714"/>
				<stop  offset="0.0978" style="stop-color:#A37628"/>
				<stop  offset="0.226" style="stop-color:#C89D45"/>
				<stop  offset="0.3319" style="stop-color:#E1B95B"/>
				<stop  offset="0.4016" style="stop-color:#EAC464"/>
				<stop  offset="0.4866" style="stop-color:#FADC7F"/>
				<stop  offset="0.5414" style="stop-color:#FFE88C"/>
				<stop  offset="0.607" style="stop-color:#FFE689"/>
				<stop  offset="0.6346" style="stop-color:#FCDF82"/>
				<stop  offset="0.6551" style="stop-color:#F5D475"/>
				<stop  offset="0.6719" style="stop-color:#ECC464"/>
				<stop  offset="0.6819" style="stop-color:#E4B756"/>
				<stop  offset="0.7399" style="stop-color:#A87A26"/>
				<stop  offset="0.7746" style="stop-color:#8C6015"/>
				<stop  offset="0.7942" style="stop-color:#926518"/>
				<stop  offset="0.8185" style="stop-color:#A17322"/>
				<stop  offset="0.8451" style="stop-color:#BB8D34"/>
				<stop  offset="0.8733" style="stop-color:#E4B655"/>
				<stop  offset="0.8736" style="stop-color:#E4B756"/>
				<stop  offset="1" style="stop-color:#E4B756"/>
			</linearGradient>
			<path style="fill:url(#SVGID_00000145047747618412730320000002433760715963059620_);" d="M755.92,637.1
				c1.99-19.3,0.26-124.09,0.26-124.09c-9.12-58.69-0.56-83.08,5.32-89.12c5.69-5.82,7.2-0.09,7.2-0.09l-0.66,81.97
				c0,0-0.78,6.1-1.04,7.58c-3.07,17.28,5.44,123.14,5.44,123.14C764.88,643.83,755.92,637.1,755.92,637.1z"/>
		</g>
		
			<linearGradient id="SVGID_00000029042869850782853030000011208432766963738766_" gradientUnits="userSpaceOnUse" x1="527.491" y1="429.8624" x2="527.491" y2="313.4984">
			<stop  offset="0" style="stop-color:#845714"/>
			<stop  offset="0.0978" style="stop-color:#A37628"/>
			<stop  offset="0.226" style="stop-color:#C89D45"/>
			<stop  offset="0.3319" style="stop-color:#E1B95B"/>
			<stop  offset="0.4016" style="stop-color:#EAC464"/>
			<stop  offset="0.4866" style="stop-color:#FADC7F"/>
			<stop  offset="0.5414" style="stop-color:#FFE88C"/>
			<stop  offset="0.607" style="stop-color:#FFE689"/>
			<stop  offset="0.6346" style="stop-color:#FCDF82"/>
			<stop  offset="0.6551" style="stop-color:#F5D475"/>
			<stop  offset="0.6719" style="stop-color:#ECC464"/>
			<stop  offset="0.6819" style="stop-color:#E4B756"/>
			<stop  offset="0.7399" style="stop-color:#A87A26"/>
			<stop  offset="0.7746" style="stop-color:#8C6015"/>
			<stop  offset="0.7942" style="stop-color:#926518"/>
			<stop  offset="0.8185" style="stop-color:#A17322"/>
			<stop  offset="0.8451" style="stop-color:#BB8D34"/>
			<stop  offset="0.8733" style="stop-color:#E4B655"/>
			<stop  offset="0.8736" style="stop-color:#E4B756"/>
			<stop  offset="1" style="stop-color:#E4B756"/>
		</linearGradient>
		<path style="fill:url(#SVGID_00000029042869850782853030000011208432766963738766_);" d="M449.98,429.86c0,0,67.64-28.99,148.98,0
			c0,0,16.91-87.37,39.46-116.36c0,0-20.94,16.11-31.41,38.65c0,0-8.12-11-18.6-4.57c-3.19,1.95-5.49,5.05-6.8,8.55
			c-1.88,5.04-3.86,13.78-0.78,24.13c0.29,0.96,1.65,0.96,1.96,0.01c1.89-5.89,6.93-17.63,16.3-13.76c0,0,9.4,5.1-2.95,27.65
			c0,0-13.42,17.98-42.95,10.2c0,0-24.16-5.91-22.01-31.14c0,0,1.6-12.43,14.69-13.03c6.96-0.32,12.78,5.48,12.19,12.42
			c-0.19,2.27-0.77,4.96-1.91,8.13c0,0,11.66-3.75,8.39-22.98c-1.86-10.94-13.94-16.97-23.8-11.88c-0.14,0.07-0.29,0.15-0.43,0.23
			c0,0,1.34-19.33-14.5-32.61c0,0-16.37,7.92-13.96,32.35c0,0-20.67-8.32-26.84,15.03c0,0-1.34,12.62,7.25,17.98
			c0,0-1.88-20.94,13.42-18.79c0,0,15.57,2.15,11.54,26.31c0,0-7.78,27.38-46.44,20.13c0,0-19.6-2.95-24.96-27.38
			c0,0-1.53-8.87,4.1-12.97c6.03-4.39,14.44,0.17,14.92,7.61c0.09,1.33,0.06,2.83-0.11,4.54c-0.1,0.94,1.07,1.44,1.66,0.7
			c2.2-2.73,5.34-8.61,5.04-19.66c-0.18-6.49-4.52-12.31-10.8-13.95c-4.8-1.26-10.91-0.46-17.49,6.36c0,0-12.35-26.57-26.57-35.7
			C416.56,316.05,437.77,369.73,449.98,429.86z"/>
	</g>
	
		<linearGradient id="SVGID_00000122703332893486186680000005338501276915232667_" gradientUnits="userSpaceOnUse" x1="246.0209" y1="731.6415" x2="833.4791" y2="731.6415">
		<stop  offset="0" style="stop-color:#845714"/>
		<stop  offset="0.0978" style="stop-color:#A37628"/>
		<stop  offset="0.226" style="stop-color:#C89D45"/>
		<stop  offset="0.3319" style="stop-color:#E1B95B"/>
		<stop  offset="0.4016" style="stop-color:#EAC464"/>
		<stop  offset="0.4866" style="stop-color:#FADC7F"/>
		<stop  offset="0.5414" style="stop-color:#FFE88C"/>
		<stop  offset="0.607" style="stop-color:#FFE689"/>
		<stop  offset="0.6346" style="stop-color:#FCDF82"/>
		<stop  offset="0.6551" style="stop-color:#F5D475"/>
		<stop  offset="0.6719" style="stop-color:#ECC464"/>
		<stop  offset="0.6819" style="stop-color:#E4B756"/>
		<stop  offset="0.7399" style="stop-color:#A87A26"/>
		<stop  offset="0.7746" style="stop-color:#8C6015"/>
		<stop  offset="0.7942" style="stop-color:#926518"/>
		<stop  offset="0.8185" style="stop-color:#A17322"/>
		<stop  offset="0.8451" style="stop-color:#BB8D34"/>
		<stop  offset="0.8733" style="stop-color:#E4B655"/>
		<stop  offset="0.8736" style="stop-color:#E4B756"/>
		<stop  offset="1" style="stop-color:#E4B756"/>
	</linearGradient>
	<path style="fill:url(#SVGID_00000122703332893486186680000005338501276915232667_);" d="M299.76,721.93l-12.37,16.71
		c-5.72,8-10.13,12-13.22,12c-1.44,0-2.71-0.82-3.83-2.47c-1.11-1.65-2.25-4.15-3.42-7.52c-1.16-3.37-1.98-5.92-2.45-7.65
		c-1.06-4.01-1.78-6.29-2.15-6.83l-1.9,9.66c-0.59,3.12-1.2,5.99-1.82,8.6c-0.62,2.61-1.29,5.75-2.02,9.41
		c-0.73,3.66-1.18,6.43-1.36,8.28c-0.05,0.62-0.64,1.29-1.76,2.01c-1.13,0.72-1.99,1.08-2.58,1.08c-1.19,0-2.3-0.55-3.32-1.65
		c-1.03-1.1-1.54-2.16-1.54-3.18c0-2.38,0.49-5.4,1.49-9.06c4.08-15,6.42-24.45,7-28.34c0.58-3.89,0.87-7.12,0.87-9.69
		c0-1.34,0.58-2.36,1.75-3.08c1.16-0.72,2.69-1.08,4.57-1.08c1.01,0,2.03,0.67,3.04,2.01c1.02,1.34,1.68,2.58,2.01,3.72l-0.04-0.08
		l5.16,14.45c2.05,5.77,3.43,9.43,4.12,10.99c2.67-2.9,6.63-7.93,11.88-15.12c5.25-7.15,8.84-11.76,10.77-13.82
		c1.93-2.05,3.29-3.08,4.09-3.08c1.21,0,2.56,0.51,4.05,1.52c1.49,1.02,2.23,1.88,2.23,2.6c0,0.54-0.48,4.27-1.45,11.18
		c-0.67,4.88-1.28,10.34-1.82,16.38c-0.54,6.04-0.82,9.61-0.82,10.7c0,1.34,0.17,2.71,0.52,4.12c0.25,1.09,0.37,2.12,0.37,3.08
		c0,2.45-0.43,4.12-1.28,5.01c-0.85,0.89-2.17,1.34-3.95,1.34c-3.24,0-4.86-2.44-4.86-7.32c0-4.61,0.42-10.23,1.26-16.88
		c0.84-6.65,1.61-11.75,2.3-15.32C299.52,723.32,299.68,722.43,299.76,721.93z M344.32,749.23c-2.38,4.33-5.13,7.77-8.26,10.32
		c-3.13,2.55-6.31,3.83-9.53,3.83c-1.91,0-3.83-1-5.77-3.01c-1.94-2.01-2.92-5.09-2.92-9.25c0-2.95,0.74-7.39,2.23-13.33
		c1.29-4.9,1.93-8.63,1.93-11.18c0.99-2.08,2.54-3.12,4.64-3.12c1.44,0,2.58,0.48,3.43,1.43c0.85,0.95,1.28,1.91,1.28,2.88
		c0,1.76-0.62,4.26-1.86,7.5c-0.72,1.93-1.49,4.66-2.32,8.19c-0.83,3.53-1.24,5.79-1.24,6.78c0,3.29,0.68,4.94,2.04,4.94
		c2.15,0,5.06-2.07,8.73-6.2c3.66-4.13,6.05-8.37,7.17-12.7c1.11-4.23,2.1-7.01,2.97-8.32c0.87-1.31,2.09-1.97,3.68-1.97
		c2.58,0,3.86,1.44,3.86,4.31c0,0.42-0.21,1.26-0.63,2.53c-1.46,4.38-2.19,9.32-2.19,14.82c0,6.44,1.09,10.29,3.27,11.55
		c0.72,0.42,1.08,0.94,1.08,1.56c0,0.89-0.63,1.73-1.89,2.53c-1.26,0.79-2.47,1.19-3.6,1.19c-1.96,0-3.46-1.38-4.51-4.14
		C344.85,757.59,344.32,753.88,344.32,749.23z M374.22,760.63c-0.3,2.55-1.72,3.83-4.27,3.83c-3.24,0-4.86-2.34-4.86-7.02
		c0-7.58,0.41-14.05,1.22-19.42c0.65-4.18,0.97-8.29,0.97-12.33c0-0.97,0.31-1.78,0.93-2.43c0.62-0.66,1.49-0.99,2.6-0.99
		c3.72,0,5.57,2.25,5.57,6.76c0,1.46-0.66,5.19-1.97,11.18c-0.79,3.56-1.19,6.15-1.19,7.76c7.08-15.55,13.47-23.32,19.16-23.32
		c2.3,0,4.15,0.92,5.55,2.75c1.4,1.83,2.12,5.89,2.17,12.18c0.02,5.74,0.32,8.61,0.89,8.61c0.45,0,1.99-2.78,4.64-8.36
		c2.95-6.16,5.47-10.24,7.56-12.22c2.09-1.98,4.29-2.97,6.59-2.97c2.75,0,4.74,1.18,5.98,3.55c1.24,2.36,2.1,6.36,2.6,11.98
		c0.37,4.46,0.87,7.82,1.5,10.1c0.63,2.28,1.71,3.79,3.25,4.53c1.24,0.6,1.86,1.49,1.86,2.67c0,1.06-0.71,2.13-2.12,3.21
		c-1.41,1.08-2.85,1.62-4.31,1.62c-2.53,0-4.5-1.24-5.92-3.73s-2.38-7.48-2.88-14.98c-0.27-3.61-0.56-6.01-0.87-7.19
		c-0.31-1.17-0.77-1.76-1.39-1.76c-0.54,0-1.34,0.89-2.38,2.66s-2.84,5.29-5.39,10.56c-2.25,4.75-4.19,8.07-5.81,9.95
		s-3.36,2.82-5.22,2.82c-1.44,0-2.88-0.62-4.33-1.86c-1.45-1.24-2.24-5.73-2.36-13.48c-0.12-6.91-0.57-10.36-1.34-10.36
		c-1.04,0-3.54,3.07-7.5,9.21C379.2,750.28,376.22,755.77,374.22,760.63z M444.18,726.76c2.4-14.23,4.13-22.67,5.18-25.29
		c1.05-2.63,2.89-3.94,5.51-3.94c2.03,0,3.05,1.79,3.05,5.38c0,2.45-1.02,7.54-3.05,15.26c-1.06,3.81-2.35,9.58-3.86,17.3
		c3.07-4.08,6.42-7.39,10.05-9.91c3.63-2.53,6.86-3.79,9.71-3.79c2.33,0,4.26,1,5.81,2.99c1.55,1.99,2.32,4.34,2.32,7.04
		c0,7.63-2.93,14.79-8.78,21.5c-5.86,6.71-12.07,10.06-18.66,10.06c-1.98,0-3.83-0.54-5.53-1.62c-1.71-1.08-2.67-2.46-2.9-4.14
		c-0.1-0.92-0.28-1.52-0.56-1.82c-0.27-0.3-0.56-0.62-0.85-0.97c-0.72-0.74-1.08-1.78-1.08-3.12c0-1.53,0.38-4.73,1.15-9.58
		L444.18,726.76z M448.56,753.12c1.04,1.73,2.2,2.6,3.49,2.6c2.33,0,4.91-1.07,7.74-3.21c2.84-2.14,5.3-5.16,7.39-9.04
		c2.09-3.89,3.14-7.12,3.14-9.69c0-2.45-0.38-3.68-1.15-3.68c-3.94,0-8.36,2.88-13.26,8.63
		C451.01,744.49,448.56,749.29,448.56,753.12z M510.02,750.38c-6.51,8.59-12.8,12.89-18.86,12.89c-2.23,0-4.15-0.88-5.76-2.64
		c-1.61-1.76-2.41-4-2.41-6.72c0-6.56,2.92-13.55,8.76-20.96s11.73-11.12,17.68-11.12c3.02,0,5,1.52,5.94,4.57
		c2.85,0,4.27,1.09,4.27,3.27c0,1.04-0.27,2.92-0.82,5.65c-0.99,5.1-1.49,9.17-1.49,12.22c0,3.17,0.22,5.4,0.65,6.68
		c0.43,1.29,0.75,2.13,0.95,2.53c0.2,0.4,0.79,0.82,1.78,1.26c0.99,0.47,1.48,1.13,1.48,1.97c0,1.26-0.64,2.31-1.91,3.16
		c-1.28,0.84-2.6,1.26-3.99,1.26C511.65,764.38,509.55,759.71,510.02,750.38z M507.79,729.77c-2.5,0-5.75,2.77-9.75,8.3
		c-4,5.53-6,10.23-6,14.09c0,2.03,0.42,3.04,1.26,3.04c2.92,0,6.52-2.59,10.79-7.78c4.27-5.19,6.4-9.72,6.4-13.61
		c0-1.24-0.28-2.22-0.83-2.95C509.11,730.13,508.49,729.77,507.79,729.77z M531.71,738.16v0.04c0.79-4.51,1.19-7.08,1.19-7.73
		c0-1.83,0.4-3.37,1.21-4.6c0.8-1.24,1.92-1.86,3.36-1.86c1.68,0,3,0.4,3.94,1.19c0.94,0.79,1.41,1.68,1.41,2.67
		c0,0.99-0.46,3.03-1.37,6.13l-0.22,0.82c-1.36,4.78-2.18,8.68-2.45,11.7c-0.27,3.02-0.41,5.46-0.41,7.32
		c0,1.51,0.26,3.53,0.78,6.05c0.08,0.45,0.11,0.82,0.11,1.11c0,0.57-0.54,1.34-1.62,2.3c-1.08,0.97-2.24,1.45-3.47,1.45
		c-3.27,0-4.9-2.48-4.9-7.43c0-4.21,0.6-9.33,1.78-15.37C531.29,740.61,531.51,739.35,531.71,738.16z M549.65,707.63
		c0,1.76-0.79,3.3-2.38,4.62c-1.58,1.32-2.96,1.99-4.12,1.99c-1.48,0-2.8-0.62-3.95-1.86s-1.73-2.47-1.73-3.71
		c0-1.78,0.57-3.22,1.71-4.33c1.14-1.1,2.77-1.65,4.9-1.65c1.66,0,3,0.49,4.03,1.47C549.13,705.14,549.65,706.29,549.65,707.63z
		 M634.73,721.93l-12.37,16.71c-5.72,8-10.13,12-13.22,12c-1.44,0-2.71-0.82-3.83-2.47c-1.11-1.65-2.25-4.15-3.42-7.52
		c-1.16-3.37-1.98-5.92-2.45-7.65c-1.06-4.01-1.78-6.29-2.15-6.83l-1.9,9.66c-0.59,3.12-1.2,5.99-1.82,8.6
		c-0.62,2.61-1.29,5.75-2.02,9.41c-0.73,3.66-1.18,6.43-1.36,8.28c-0.05,0.62-0.64,1.29-1.76,2.01c-1.13,0.72-1.99,1.08-2.58,1.08
		c-1.19,0-2.3-0.55-3.32-1.65c-1.03-1.1-1.54-2.16-1.54-3.18c0-2.38,0.49-5.4,1.49-9.06c4.08-15,6.42-24.45,7-28.34
		c0.58-3.89,0.87-7.12,0.87-9.69c0-1.34,0.58-2.36,1.75-3.08c1.16-0.72,2.69-1.08,4.57-1.08c1.01,0,2.03,0.67,3.04,2.01
		c1.02,1.34,1.68,2.58,2.01,3.72l-0.04-0.08l5.16,14.45c2.05,5.77,3.43,9.43,4.12,10.99c2.67-2.9,6.63-7.93,11.88-15.12
		c5.25-7.15,8.84-11.76,10.77-13.82c1.93-2.05,3.29-3.08,4.09-3.08c1.21,0,2.56,0.51,4.05,1.52c1.49,1.02,2.23,1.88,2.23,2.6
		c0,0.54-0.48,4.27-1.45,11.18c-0.67,4.88-1.28,10.34-1.82,16.38c-0.54,6.04-0.82,9.61-0.82,10.7c0,1.34,0.17,2.71,0.52,4.12
		c0.25,1.09,0.37,2.12,0.37,3.08c0,2.45-0.43,4.12-1.28,5.01c-0.85,0.89-2.17,1.34-3.95,1.34c-3.24,0-4.86-2.44-4.86-7.32
		c0-4.61,0.42-10.23,1.26-16.88c0.84-6.65,1.61-11.75,2.3-15.32C634.49,723.32,634.65,722.43,634.73,721.93z M678.58,750.38
		c-6.51,8.59-12.8,12.89-18.86,12.89c-2.23,0-4.15-0.88-5.76-2.64s-2.41-4-2.41-6.72c0-6.56,2.92-13.55,8.76-20.96
		c5.84-7.41,11.73-11.12,17.68-11.12c3.02,0,5,1.52,5.94,4.57c2.85,0,4.27,1.09,4.27,3.27c0,1.04-0.27,2.92-0.82,5.65
		c-0.99,5.1-1.49,9.17-1.49,12.22c0,3.17,0.22,5.4,0.65,6.68c0.43,1.29,0.75,2.13,0.95,2.53c0.2,0.4,0.79,0.82,1.78,1.26
		c0.99,0.47,1.48,1.13,1.48,1.97c0,1.26-0.64,2.31-1.91,3.16c-1.28,0.84-2.6,1.26-3.99,1.26
		C680.21,764.38,678.11,759.71,678.58,750.38z M676.36,729.77c-2.5,0-5.75,2.77-9.75,8.3c-4,5.53-6,10.23-6,14.09
		c0,2.03,0.42,3.04,1.26,3.04c2.92,0,6.52-2.59,10.79-7.78c4.27-5.19,6.4-9.72,6.4-13.61c0-1.24-0.28-2.22-0.83-2.95
		C677.68,730.13,677.05,729.77,676.36,729.77z M715.13,753.39c-0.1-1.34-2.23-2.97-6.39-4.9c-5.1-2.45-8.36-4.56-9.77-6.33
		c-1.41-1.77-2.12-3.7-2.12-5.77c0-4.38,2.46-8.21,7.37-11.49c4.91-3.28,9.5-4.92,13.76-4.92c4.18,0,6.28,1.82,6.28,5.46
		c0,0.97-0.48,1.83-1.43,2.6c-0.95,0.77-1.77,1.15-2.43,1.15c-0.27,0-0.76-0.17-1.45-0.52c-0.69-0.35-1.23-0.52-1.6-0.52
		c-2.2,0-4.63,0.74-7.28,2.23c-2.65,1.49-3.97,3.22-3.97,5.2c0,0.97,0.47,1.9,1.41,2.8c0.94,0.9,2.86,2.04,5.76,3.4
		c4.28,2.03,7.11,3.86,8.47,5.5c1.36,1.63,2.04,3.44,2.04,5.42c0,3.61-2.45,6.63-7.34,9.04c-4.89,2.41-10.38,3.62-16.47,3.62
		c-4.48,0-6.72-1.62-6.72-4.86c0-1.19,0.47-2.2,1.41-3.04c0.94-0.84,1.99-1.26,3.16-1.26c0.47,0,1.2,0.17,2.19,0.52
		c0.99,0.37,1.91,0.56,2.75,0.56c2.33,0,4.77-0.37,7.32-1.11C712.63,755.39,714.31,754.47,715.13,753.39z M755.2,750.38
		c-6.51,8.59-12.8,12.89-18.86,12.89c-2.23,0-4.15-0.88-5.76-2.64c-1.61-1.76-2.41-4-2.41-6.72c0-6.56,2.92-13.55,8.76-20.96
		s11.73-11.12,17.68-11.12c3.02,0,5,1.52,5.94,4.57c2.85,0,4.27,1.09,4.27,3.27c0,1.04-0.27,2.92-0.82,5.65
		c-0.99,5.1-1.49,9.17-1.49,12.22c0,3.17,0.22,5.4,0.65,6.68c0.43,1.29,0.75,2.13,0.95,2.53c0.2,0.4,0.79,0.82,1.78,1.26
		c0.99,0.47,1.48,1.13,1.48,1.97c0,1.26-0.64,2.31-1.91,3.16c-1.28,0.84-2.6,1.26-3.99,1.26
		C756.82,764.38,754.73,759.71,755.2,750.38z M752.97,729.77c-2.5,0-5.75,2.77-9.75,8.3c-4,5.53-6,10.23-6,14.09
		c0,2.03,0.42,3.04,1.26,3.04c2.92,0,6.52-2.59,10.79-7.78c4.27-5.19,6.4-9.72,6.4-13.61c0-1.24-0.28-2.22-0.83-2.95
		C754.29,730.13,753.66,729.77,752.97,729.77z M787.84,699.94c2.67,0,4.01,1.46,4.01,4.38c0,1.34-0.19,2.78-0.56,4.33
		c-0.37,1.55-1.39,5.38-3.04,11.49c-1.21,4.43-2.13,9.27-2.77,14.5c-0.63,5.24-0.95,9.33-0.95,12.27c0,3.14,0.23,6.88,0.71,11.21
		c0.12,1.16,0.19,1.89,0.19,2.19c0,1.49-0.54,2.76-1.63,3.83c-1.09,1.06-2.28,1.6-3.56,1.6c-1.76,0-3-0.83-3.71-2.49
		c-0.72-1.66-1.08-4.51-1.08-8.54c0-8.69,1.02-18.93,3.06-30.71s3.71-18.74,5.01-20.87C784.81,701.01,786.26,699.94,787.84,699.94z
		 M821.3,750.38c-6.51,8.59-12.8,12.89-18.86,12.89c-2.23,0-4.15-0.88-5.76-2.64c-1.61-1.76-2.41-4-2.41-6.72
		c0-6.56,2.92-13.55,8.76-20.96s11.73-11.12,17.68-11.12c3.02,0,5,1.52,5.94,4.57c2.85,0,4.27,1.09,4.27,3.27
		c0,1.04-0.27,2.92-0.82,5.65c-0.99,5.1-1.49,9.17-1.49,12.22c0,3.17,0.22,5.4,0.65,6.68c0.43,1.29,0.75,2.13,0.95,2.53
		c0.2,0.4,0.79,0.82,1.78,1.26c0.99,0.47,1.48,1.13,1.48,1.97c0,1.26-0.64,2.31-1.91,3.16c-1.28,0.84-2.6,1.26-3.99,1.26
		C822.92,764.38,820.83,759.71,821.3,750.38z M819.07,729.77c-2.5,0-5.75,2.77-9.75,8.3c-4,5.53-6,10.23-6,14.09
		c0,2.03,0.42,3.04,1.26,3.04c2.92,0,6.52-2.59,10.79-7.78c4.27-5.19,6.4-9.72,6.4-13.61c0-1.24-0.28-2.22-0.83-2.95
		C820.39,730.13,819.76,729.77,819.07,729.77z"/>
</g>
</svg>
